# xmcd
#
# Track frame offsets:
#	150
#	9980
#	21307
#	31227
#	44710
#	56660
#	66770
#	78090
#	91662
#	108722
#	119947
#	130280
#	140672
#	153427
#	166495
#	193537
#	203877
#	219390
#	230955
#	242967
#
# Disc length: 3386
#
# Revision: 1
# Processed by: cddbd v1.5.1PL0 Copyright (c) Steve Scherf et al.
# Submitted via: MAGIX_Freedb v0.9beta0
# Normalized: r0:DSETVAR1
#
DISCID=270d3814
DTITLE=Various Artist - 20th Century Country
DYEAR=1997
DGENRE=
TTITLE0=Ned Miller - From a Jack to a king
TTITLE1=Don Gibson - Sea of heartbreak
TTITLE2=Hank Locklin - Please help me, I´m falling (in love with you)
TTITLE3=David Houston - Almost Persuadet
TTITLE4=Del Reeves - Girl on the billboard
TTITLE5=Porter Wagoner - Green, green grass of home
TTITLE6=Wynn Stewart - It´s such a pretty world today
TTITLE7=Lee Greenwood - Don´t underestimate my love for you
TTITLE8=Ray Price - For the good times
TTITLE9=Conway Twitty - It´s only make believe
TTITLE10=Faron Young - Hello Walls
TTITLE11=George Hamilton IV - Abilene
TTITLE12=Jerry Wallace - In the misty moonlight
TTITLE13=Bobby Helms - My special angel
TTITLE14=Jimmy Dean - To a sleeping beauty
TTITLE15=Freddy Weller - Indian lake
TTITLE16=Cal Smith - Country Bumpkin
TTITLE17=Freddy Fender - Before the next teardrop falls
TTITLE18=Jach Greene - There goes my everything
TTITLE19=Roger Miller - Husband and wives
EXTD=
EXTT0=
EXTT1=
EXTT2=
EXTT3=
EXTT4=
EXTT5=
EXTT6=
EXTT7=
EXTT8=
EXTT9=
EXTT10=
EXTT11=
EXTT12=
EXTT13=
EXTT14=
EXTT15=
EXTT16=
EXTT17=
EXTT18=
EXTT19=
PLAYORDER=
